<svg width="128" height="145" xmlns="http://www.w3.org/2000/svg" class="svg-canvas" preserveAspectRatio="none">
 <g>
  <title>background</title>
  <rect fill="none" id="canvas_background" height="147" width="521" y="-1" x="-1"/>
 </g>

 <g>
  <title>Layer 1</title>
  <g transform="matrix(1,0,0,1,40,227.5850067138672) " id="svg_2" stroke="null">
   <svg preserveAspectRatio="none" class="style-removed" viewBox="37.739017486572266 28.86749839782715 124.52210998535156 142.27252197265625" height="144.82964" width="126.76019" y="-227.585007" x="-40" id="svg_1" xmlns:xlink="http://www.w3.org/1999/xlink">
    <g id="svg_3" stroke="null">
     <g id="svg_17" stroke="null">
      <path id="svg_18" stroke-width="0" fill="#20448D" d="m131.29,67.07c0.02,18.49 -0.01,36.97 0.04,55.45c0.01,2.12 -0.78,3.41 -2.7,4.33c-6.29,3.02 -12.52,6.17 -18.78,9.26c-1.18,0.58 -2.37,1.14 -3.68,1.76l0,6.92c4.59,-2.52 9.33,-4.79 14.02,-7.13c4.5,-2.24 8.98,-4.56 13.57,-6.62c2.6,-1.17 3.59,-2.74 3.57,-5.67c-0.14,-16.65 -0.1,-33.3 0.02,-49.95c0.01,-1.38 0.77,-3.32 1.83,-4.03c3.83,-2.55 4.54,-2.05 4.54,2.59c-0.01,17.36 -0.09,34.73 0.02,52.1c0.02,3.13 -0.72,5.1 -3.84,6.41c-4.82,2.03 -9.45,4.53 -14.08,6.96c-0.86,0.44 -1.37,1.54 -2.04,2.33c0.96,0.41 1.9,1.18 2.85,1.2c10.79,0.08 21.59,0.01 32.38,0.07c2.44,0.01 3.21,-1.07 3.21,-3.37c-0.01,-22.72 0.05,-45.43 0.04,-68.14c0,-4.42 -0.74,-4.82 -4.64,-2.89c-1.66,0.82 -3.34,1.6 -4.96,2.48c-2.23,1.22 -3.01,0.33 -3,-1.91c0.01,-2.05 0.04,-4.11 0.01,-6.17c-0.04,-2.75 -1.14,-3.26 -3.69,-1.92c-2.52,1.32 -5.13,2.47 -8.44,4.05c-0.11,-2.29 -0.24,-3.94 -0.26,-5.6c-0.06,-5.33 -0.46,-5.6 -5.12,-3.29c-8.29,4.1 -16.58,8.19 -24.87,12.28c-0.36,0.18 -0.73,0.35 -1.12,0.51l0,6.77c7.16,-3.49 14.26,-7.1 21.39,-10.63c0.89,-0.44 1.84,-0.78 3.19,-1.34c0.23,1.3 0.53,2.24 0.54,3.19zm14.8,69.96c2.3,-1.83 3.92,-3.37 3.86,-6.59c-0.25,-15.79 -0.23,-31.59 -0.29,-47.39c-0.01,-4 1.7,-5.66 6.28,-5.91c0.06,1.09 0.17,2.18 0.18,3.27c0.01,14.77 0,29.54 0,44.31c0,3.18 0.15,6.38 -0.12,9.53c-0.09,0.97 -1.25,2.53 -2.08,2.64c-2.57,0.35 -5.22,0.14 -7.83,0.14z" stroke="null"/>
     </g>
     <g id="svg_15" stroke="null">
      <path id="svg_16" stroke-width="0" fill="#20448D" d="m69.25,63.9c1.35,0.56 2.3,0.89 3.19,1.34c7.13,3.53 14.23,7.14 21.39,10.63l0,-6.77c-0.38,-0.16 -0.75,-0.33 -1.12,-0.51c-8.29,-4.08 -16.59,-8.18 -24.87,-12.28c-4.66,-2.31 -5.06,-2.05 -5.12,3.29c-0.02,1.66 -0.15,3.31 -0.26,5.6c-3.31,-1.57 -5.93,-2.73 -8.44,-4.05c-2.55,-1.34 -3.64,-0.83 -3.69,1.92c-0.04,2.06 -0.01,4.11 0.01,6.17c0.01,2.24 -0.77,3.13 -3,1.91c-1.62,-0.88 -3.31,-1.66 -4.96,-2.48c-3.9,-1.93 -4.64,-1.52 -4.64,2.89c-0.01,22.71 0.06,45.42 0.04,68.14c0,2.3 0.76,3.38 3.21,3.37c10.79,-0.06 21.59,0.01 32.38,-0.07c0.96,-0.01 1.9,-0.78 2.85,-1.2c-0.67,-0.8 -1.18,-1.89 -2.04,-2.33c-4.64,-2.44 -9.27,-4.93 -14.08,-6.96c-3.12,-1.31 -3.86,-3.28 -3.84,-6.41c0.11,-17.37 0.04,-34.74 0.02,-52.1c0,-4.64 0.71,-5.14 4.54,-2.59c1.06,0.71 1.82,2.65 1.83,4.03c0.12,16.65 0.15,33.3 0.02,49.95c-0.02,2.93 0.97,4.5 3.57,5.67c4.59,2.05 9.06,4.37 13.57,6.62c4.69,2.34 9.43,4.61 14.02,7.13l0,-6.92c-1.31,-0.62 -2.5,-1.18 -3.68,-1.76c-6.26,-3.09 -12.49,-6.24 -18.78,-9.26c-1.92,-0.92 -2.71,-2.21 -2.7,-4.33c0.04,-18.48 0.01,-36.97 0.04,-55.45c0.01,-0.97 0.31,-1.91 0.54,-3.19zm-23.16,73c-0.83,-0.11 -2,-1.66 -2.08,-2.64c-0.27,-3.16 -0.12,-6.35 -0.12,-9.53c0,-14.77 -0.01,-29.54 0,-44.31c0.01,-1.1 0.12,-2.19 0.18,-3.27c4.58,0.25 6.29,1.91 6.28,5.91c-0.06,15.8 -0.04,31.6 -0.29,47.39c-0.06,3.22 1.56,4.75 3.86,6.59c-2.62,-0.01 -5.27,0.2 -7.83,-0.14z" stroke="null"/>
     </g>
     <g id="svg_4" stroke="null">
      <g id="svg_5" stroke="null">
       <g id="svg_13" stroke="null">
        <path id="svg_14" stroke-width="0" fill="#20448D" d="m97.33,57.42c-1.51,-0.16 -2.63,-0.18 -3.71,-0.4c-6.85,-1.41 -11.4,-7.33 -11.22,-14.51c0.17,-6.78 5.14,-12.58 12,-13.34c3.9,-0.43 7.93,-0.4 11.82,0.08c5.92,0.73 10.7,6.09 11.37,11.98c0.73,6.44 -2.68,12.52 -8.37,14.91c-0.49,0.21 -1.04,0.3 -1.79,0.51c0,-1.91 0,-3.66 0,-5.62c3.11,-0.88 5.7,-2.59 6.58,-6.06c0.54,-2.12 0.19,-4.14 -0.99,-5.99c-2.85,-4.48 -7.44,-4.65 -13.01,-0.48c-4.62,-3.73 -8.61,-4.06 -11.81,-0.96c-2.73,2.65 -3.13,7.07 -0.91,10.09c2.39,3.26 7.18,4.86 10.07,2.47c-0.58,-1.59 -1.32,-3.62 -2.03,-5.56c3.22,0 6.06,0 8.94,0c-0.71,3.15 -1.92,6.19 -1.92,9.24c0,2.98 1.23,5.96 1.96,9.11c-2.83,0 -5.63,0 -8.94,0c0.67,-1.89 1.27,-3.55 1.96,-5.47z" stroke="null"/>
       </g>
       <g id="svg_11" stroke="null">
        <path id="svg_12" stroke-width="0" fill="#20448D" d="m94.01,151.74c1.04,0 1.97,0 3.23,0c0,-9.6 0,-73.36 0,-83.02c1.95,0 3.57,0 5.34,0c0,14.57 0,87.84 0,102.42c-1.68,0 -3.31,0 -5.25,0c0,-2.74 0,-10.11 0,-13c-1.24,0 -2.17,0 -3.33,0l0.01,-6.4z" stroke="null"/>
       </g>
       <rect id="svg_10" stroke-width="0" fill="#20448D" height="6.51" width="7.04" y="146.69" x="84.38" stroke="null"/>
       <rect id="svg_9" stroke-width="0" fill="#20448D" height="6.51" width="7.04" y="157.37" x="84.38" stroke="null"/>
       <rect id="svg_8" stroke-width="0" fill="#20448D" height="6.4" width="11.19" y="151.75" x="88.69" stroke="null"/>
      </g>
     </g>
    </g>
   </svg>
  </g>
 </g>
</svg>
